<?xml version="1.0" encoding="utf-8"?>
<svg xmlns="http://www.w3.org/2000/svg" version="1.1" width="1000" height="800">

<circle cx="100" cy="100" r="30" fill="rgb(255,200,0)" />
<circle cx="200" cy="100" r="30" fill="rgb(100,150,200)" />
<circle cx="300" cy="100" r="30" fill="pink" />
<circle cx="400" cy="100" r="30" fill="black" />
<circle cx="100" cy="200" r="30" fill="none" stroke="red" stroke-width="10" />
<circle cx="200" cy="200" r="30" fill="none" stroke="red" stroke-width="5" />
<circle cx="300" cy="200" r="30" fill="none" stroke="red" stroke-width="1" />
<polygon points=" 100,300 200,300 150,250" style="fill:green;stroke:orange;stroke-width:5" />
<polygon points=" 300,300 400,300 350,250" style="fill:green" />
<text x="100" y="320" fill="rgb(0,100,0)" >Hello Triangles !</text>
<text x="342" y="320" fill="black" >42</text>
<line x1="375" y1="175" x2="425" y2="225" stroke="black" />
<line x1="375" y1="225" x2="425" y2="175" stroke="black" />
<line x1="300" y1="70" x2="400" y2="70" stroke="black" />
<line x1="300" y1="130" x2="400" y2="130" stroke="black" />
<line x1="340" y1="70" x2="300" y2="30" stroke="blue" />
<line x1="360" y1="70" x2="400" y2="30" stroke="red" />


</svg>
